<?xml version="1.0" encoding="utf-8"?>
<!-- Generator: Adobe Illustrator 21.0.2, SVG Export Plug-In . SVG Version: 6.00 Build 0)  -->
<svg version="1.1" id="Layer_1" xmlns="http://www.w3.org/2000/svg" xmlns:xlink="http://www.w3.org/1999/xlink" x="0px" y="0px"
	 viewBox="0 0 306.2 90.1" style="enable-background:new 0 0 306.2 90.1;" xml:space="preserve">
<style type="text/css">
	.st0{fill:#FFFFFF;}
	.st1{fill:#FFCC04;}
	.st2{opacity:0.16;fill:#0E0D0E;enable-background:new    ;}
	.st3{fill:#0E0D0E;}
	.st4{fill:#010101;}
	.st5{fill:none;}
</style>
<g>
	<g>
		<path class="st0" d="M47.6,19.6c-14,0-25.4,11.4-25.4,25.4s11.4,25.5,25.5,25.5h14.6l-2.9-2.9c8.1-4.2,13.7-12.8,13.7-22.6
			C73.1,31,61.7,19.6,47.6,19.6z"/>
		<rect x="43.7" y="33.3" class="st1" width="7.8" height="23.5"/>
		<g>
			<path class="st2" d="M51.6,33.3v9.2c-2.5,0-4.6-2.1-4.6-4.6S49,33.3,51.6,33.3z"/>
			<path class="st2" d="M48.3,52.2c0,2.5-2.1,4.6-4.6,4.6v-9.2C46.3,47.6,48.3,49.7,48.3,52.2z"/>
		</g>
		<path class="st3" d="M47.6,29.4c-4.3,0-7.8,3.5-7.8,7.8c0,2.9,1.6,5.4,3.9,6.8V33.3h7.9c-2.2,0-3.9,1.8-3.9,3.9
			c0,2.2,1.8,3.9,3.9,3.9c2.2,0,3.9-1.8,3.9-3.9C55.5,32.9,52,29.4,47.6,29.4z"/>
		<path class="st3" d="M51.6,46.1v10.7h-7.8c2.2,0,3.9-1.8,3.9-3.9c0-2.2-1.8-3.9-3.9-3.9c-2.2,0-3.9,1.8-3.9,3.9
			c0,4.3,3.5,7.8,7.8,7.8s7.8-3.5,7.8-7.8C55.5,50,53.9,47.5,51.6,46.1z"/>
		<path class="st1" d="M77,45c0-16.2-13.2-29.4-29.4-29.4S18.3,28.8,18.3,45s13.2,29.4,29.4,29.4h18.6l-3.9-3.9l0,0
			C71.1,65.4,77,55.9,77,45z M47.6,70.5c-14,0-25.5-11.4-25.5-25.5c0.1-14,11.5-25.4,25.5-25.4S73.1,31,73.1,45
			c0,9.8-5.6,18.3-13.7,22.6l2.9,2.9H47.6z"/>
	</g>
	<g>
		<g>
			<polygon class="st4" points="111.7,55.9 111.7,44.3 106.4,53.6 103.8,53.6 98.5,44.5 98.5,55.9 93.5,55.9 93.5,33.8 97.7,33.8 
				105.2,46.7 112.5,33.8 116.7,33.8 116.7,55.9 			"/>
			<path class="st4" d="M128.1,56.1c-4.6,0-7.3-2.8-7.3-7.7v-9.7h5.1v9.2c0,3.1,1.6,3.5,2.8,3.5c2.2,0,3.4-1.4,3.4-4v-8.7h5.1v17.2
				h-4.9v-1C131.1,55.7,129.7,56.1,128.1,56.1z"/>
			<path class="st4" d="M140.9,55.9V38.7h4.9v1.1c1.2-0.9,2.7-1.3,4.6-1.3h0.8v5.2l-0.9-0.2c-0.3-0.1-0.5-0.1-0.7-0.1
				c-3,0-3.6,2.2-3.6,4.1v8.4H140.9z"/>
			<path class="st4" d="M162.1,56.1c-3.8,0-6-2.2-6-6.1v-6.8h-2.5v-4.4h1.8c0.4,0,0.7-0.3,0.7-0.8v-2.8h5.1v3.6h4v4.4h-4V50
				c0,1.4,0.7,1.6,1.3,1.6s1.1-0.2,1.5-0.5l0.8-0.7l1.6,4.1l-0.4,0.3C164.9,55.7,163.6,56.1,162.1,56.1z"/>
			<path class="st4" d="M179.7,55.9v-9.3c0-2.3-0.9-3.4-2.8-3.4c-2.2,0-3.5,1.4-3.5,4v8.7h-5.1V32.6h5.1v7.1
				c1.2-0.7,2.7-1.1,4.3-1.1c4.4,0,7.1,2.9,7.1,7.6V56L179.7,55.9L179.7,55.9z"/>
			<polygon class="st4" points="188.8,63.8 192.3,55.2 185.4,38.7 190.7,38.7 194.9,49.1 199.3,38.7 204.3,38.7 193.9,63.8 			"/>
		</g>
		<g>
			<path class="st4" d="M228.1,56.2c-6.6,0-11.3-4.8-11.3-11.4s4.8-11.4,11.4-11.4c3.5,0,6.5,1.3,8.4,3.7l0.4,0.5l-3.4,3.4l-0.5-0.6
				c-1.3-1.4-2.9-2.2-4.7-2.2c-3.7,0-6.3,2.7-6.3,6.5s2.6,6.5,6.3,6.5c1.9,0,3.4-0.7,4.7-2.2l0.5-0.6l3.4,3.6l-0.4,0.5
				C234.6,54.9,231.6,56.2,228.1,56.2z"/>
			<path class="st4" d="M250.4,55.9v-9.3c0-2.3-0.9-3.4-2.8-3.4c-2.2,0-3.5,1.4-3.5,4v8.7H239V32.6h5.1v7.1c1.2-0.7,2.7-1.1,4.3-1.1
				c4.4,0,7.1,2.9,7.1,7.6V56L250.4,55.9L250.4,55.9z"/>
			<path class="st4" d="M264.6,56.1c-3.8,0-6.4-2.2-6.4-5.5c0-1.6,0.7-5.4,7-5.4h2.2c0.3,0,0.5-0.1,0.6-0.4c0.1-0.1,0.2-0.3,0-0.6
				c-0.3-0.5-0.8-1.2-2.7-1.2c-1.5,0-3.1,0.5-4.1,1.4l-0.7,0.6l-2.1-4.1l0.5-0.4c1.7-1.4,4.1-2.1,6.9-2.1c4.9,0,7.6,2.6,7.6,7.4v10
				h-4.9V55C267.6,55.8,266.2,56.1,264.6,56.1z M265.5,49.2c-2.3,0-2.3,0.9-2.3,1.3c0,1.3,1.5,1.4,2.1,1.4c1.9,0,2.8-0.9,3-2.8
				L265.5,49.2L265.5,49.2z"/>
			<path class="st4" d="M283.7,56.1c-3.8,0-6-2.2-6-6.1v-6.8h-2.5v-4.4h1.8c0.4,0,0.7-0.3,0.7-0.8v-2.8h5.1v3.6h4v4.4h-4V50
				c0,1.4,0.7,1.6,1.3,1.6c0.6,0,1.1-0.2,1.5-0.5l0.8-0.7l1.6,4.1l-0.4,0.3C286.7,55.7,285.2,56.1,283.7,56.1z"/>
		</g>
	</g>
</g>
<path class="st5" d="M289.9,0H0l0,0v15.7v58.7v15.7l0,0h306.2l0,0V74.4V15.7V0H289.9z"/>
</svg>
