<?xml version="1.0" encoding="utf-8"?>
<!-- Generator: Adobe Illustrator 21.0.2, SVG Export Plug-In . SVG Version: 6.00 Build 0)  -->
<svg version="1.1" id="Layer_1" xmlns="http://www.w3.org/2000/svg" xmlns:xlink="http://www.w3.org/1999/xlink" x="0px" y="0px"
	 viewBox="0 0 295.7 90.1" style="enable-background:new 0 0 295.7 90.1;" xml:space="preserve">
<style type="text/css">
	.st0{fill:#FFFFFF;}
	.st1{fill:#FFCC04;}
	.st2{opacity:0.16;fill:#0E0D0E;}
	.st3{fill:#0E0D0E;}
	.st4{fill:#010101;}
	.st5{fill:none;}
</style>
<g>
	<g>
		<path class="st0" d="M45,19.6C31,19.6,19.6,31,19.6,45c0,14,11.4,25.5,25.5,25.5h14.6l-2.9-2.9c8.1-4.2,13.7-12.8,13.7-22.6
			C70.5,31,59.1,19.6,45,19.6z"/>
		<rect x="41.1" y="33.3" class="st1" width="7.8" height="23.5"/>
		<g>
			<path class="st2" d="M49,33.3v9.2c-2.5,0-4.6-2.1-4.6-4.6S46.4,33.3,49,33.3z"/>
			<path class="st2" d="M45.7,52.2c0,2.5-2.1,4.6-4.6,4.6v-9.2C43.7,47.6,45.7,49.7,45.7,52.2z"/>
		</g>
		<path class="st3" d="M45,29.4c-4.3,0-7.8,3.5-7.8,7.8c0,2.9,1.6,5.4,3.9,6.8V33.3H49c-2.2,0-3.9,1.8-3.9,3.9
			c0,2.2,1.8,3.9,3.9,3.9c2.2,0,3.9-1.8,3.9-3.9C52.9,32.9,49.4,29.4,45,29.4z"/>
		<path class="st3" d="M49,46.1v10.7h-7.8c2.2,0,3.9-1.8,3.9-3.9c0-2.2-1.8-3.9-3.9-3.9c-2.2,0-3.9,1.8-3.9,3.9
			c0,4.3,3.5,7.8,7.8,7.8c4.3,0,7.8-3.5,7.8-7.8C52.9,50,51.3,47.5,49,46.1z"/>
		<path class="st1" d="M74.4,45c0-16.2-13.2-29.4-29.4-29.4S15.7,28.8,15.7,45c0,16.2,13.2,29.4,29.4,29.4h18.6l-3.9-3.9l0,0
			C68.5,65.4,74.4,55.9,74.4,45z M45,70.5c-14,0-25.5-11.4-25.5-25.5C19.6,31,31,19.6,45,19.6S70.5,31,70.5,45
			c0,9.8-5.6,18.3-13.7,22.6l2.9,2.9H45z"/>
	</g>
	<g>
		<polygon class="st4" points="109.1,55.9 109.1,44.3 103.8,53.6 101.2,53.6 95.9,44.5 95.9,55.9 90.9,55.9 90.9,33.8 95.1,33.8 
			102.6,46.7 109.9,33.8 114.1,33.8 114.1,55.9 		"/>
		<path class="st4" d="M125.5,56.1c-4.6,0-7.3-2.8-7.3-7.7v-9.7h5.1v9.2c0,3.1,1.6,3.5,2.8,3.5c2.2,0,3.4-1.4,3.4-4v-8.7h5.1v17.2
			h-4.9v-1C128.5,55.7,127.1,56.1,125.5,56.1z"/>
		<path class="st4" d="M138.4,55.9V38.7h4.9v1.1c1.2-0.9,2.7-1.3,4.6-1.3h0.8v5.2l-0.9-0.2c-0.3-0.1-0.5-0.1-0.7-0.1
			c-3,0-3.6,2.2-3.6,4.1v8.4H138.4z"/>
		<path class="st4" d="M159.5,56.1c-3.8,0-6-2.2-6-6.1v-6.8H151v-4.4h1.8c0.4,0,0.7-0.3,0.7-0.8v-2.8h5.1v3.6h4v4.4h-4V50
			c0,1.4,0.7,1.6,1.3,1.6c0.6,0,1.1-0.2,1.5-0.5l0.8-0.7l1.6,4.1l-0.4,0.3C162.4,55.7,161,56.1,159.5,56.1z"/>
		<path class="st4" d="M177.1,55.9v-9.3c0-2.3-0.9-3.4-2.8-3.4c-2.2,0-3.5,1.4-3.5,4v8.7h-5.1V32.6h5.1v7.1c1.2-0.7,2.7-1.1,4.3-1.1
			c4.4,0,7.1,2.9,7.1,7.6v9.8H177.1z"/>
		<polygon class="st4" points="186.2,63.8 189.7,55.2 182.8,38.7 188.1,38.7 192.4,49.1 196.7,38.7 201.7,38.7 191.3,63.8 		"/>
		<path class="st4" d="M220.1,56.2c-6.6,0-11.3-4.8-11.3-11.4s4.8-11.4,11.4-11.4c3.5,0,6.5,1.3,8.4,3.7l0.4,0.5l-3.4,3.4l-0.5-0.6
			c-1.3-1.4-2.9-2.2-4.7-2.2c-3.7,0-6.3,2.7-6.3,6.5s2.6,6.5,6.3,6.5c1.9,0,3.4-0.7,4.7-2.2l0.5-0.6L229,52l-0.4,0.5
			C226.6,54.9,223.6,56.2,220.1,56.2z"/>
		<path class="st4" d="M242.5,55.9v-9.3c0-2.3-0.9-3.4-2.8-3.4c-2.2,0-3.5,1.4-3.5,4v8.7h-5.1V32.6h5.1v7.1c1.2-0.7,2.7-1.1,4.3-1.1
			c4.4,0,7.1,2.9,7.1,7.6v9.8H242.5z"/>
		<path class="st4" d="M256.6,56.1c-3.8,0-6.4-2.2-6.4-5.5c0-1.6,0.7-5.4,7-5.4h2.2c0.3,0,0.5-0.1,0.6-0.4c0.1-0.1,0.2-0.3,0-0.6
			c-0.3-0.5-0.8-1.2-2.7-1.2c-1.5,0-3.1,0.5-4.1,1.4l-0.7,0.6l-2.1-4.1l0.5-0.4c1.7-1.4,4.1-2.1,6.9-2.1c4.9,0,7.6,2.6,7.6,7.4v10
			h-4.9v-0.8C259.6,55.8,258.2,56.1,256.6,56.1z M257.5,49.2c-2.3,0-2.3,0.9-2.3,1.3c0,1.3,1.5,1.4,2.1,1.4c1.9,0,2.8-0.9,3-2.8
			H257.5z"/>
		<path class="st4" d="M275.7,56.1c-3.8,0-6-2.2-6-6.1v-6.8h-2.5v-4.4h1.8c0.4,0,0.7-0.3,0.7-0.8v-2.8h5.1v3.6h4v4.4h-4V50
			c0,1.4,0.7,1.6,1.3,1.6c0.6,0,1.1-0.2,1.5-0.5l0.8-0.7l1.6,4.1l-0.4,0.3C278.7,55.7,277.2,56.1,275.7,56.1z"/>
	</g>
	<path class="st5" d="M280,0H0v0v15.7v58.7v15.7v0h295.7v0V74.4V15.7V0H280z"/>
</g>
</svg>
