<?xml version="1.0" encoding="utf-8"?>
<!-- Generator: Adobe Illustrator 21.0.2, SVG Export Plug-In . SVG Version: 6.00 Build 0)  -->
<svg version="1.1" id="Layer_1" xmlns="http://www.w3.org/2000/svg" xmlns:xlink="http://www.w3.org/1999/xlink" x="0px" y="0px"
	 viewBox="0 0 97 90.1" style="enable-background:new 0 0 97 90.1;" xml:space="preserve">
<style type="text/css">
	.st0{fill:#FFCC04;}
	.st1{fill:#FFFFFF;}
	.st2{opacity:0.16;fill:#0E0D0E;enable-background:new    ;}
	.st3{fill:#0E0D0E;}
	.st4{fill:none;}
</style>
<path class="st0" d="M77.8,45c0-16.2-13.2-29.4-29.4-29.4S19.1,28.8,19.1,45s13.2,29.4,29.4,29.4h18.6l-3.9-3.9l0,0
	C71.9,65.4,77.8,56,77.8,45z"/>
<rect x="44.5" y="33.3" class="st1" width="7.8" height="23.5"/>
<g>
	<path class="st2" d="M52.5,33.3v9.2c-2.5,0-4.6-2.1-4.6-4.6S49.9,33.3,52.5,33.3z"/>
	<path class="st2" d="M49.2,52.3c0,2.5-2.1,4.6-4.6,4.6v-9.2C47.2,47.6,49.2,49.8,49.2,52.3z"/>
</g>
<path class="st3" d="M48.5,29.4c-4.3,0-7.8,3.5-7.8,7.8c0,2.9,1.6,5.4,3.9,6.8V33.3h7.9c-2.2,0-3.9,1.8-3.9,3.9
	c0,2.2,1.8,3.9,3.9,3.9c2.2,0,3.9-1.8,3.9-3.9C56.4,33,52.9,29.4,48.5,29.4z"/>
<path class="st3" d="M52.5,46.1v10.7h-7.8c2.2,0,3.9-1.8,3.9-3.9c0-2.2-1.8-3.9-3.9-3.9c-2.2,0-3.9,1.8-3.9,3.9
	c0,4.3,3.5,7.8,7.8,7.8s7.8-3.5,7.8-7.8C56.4,50,54.8,47.5,52.5,46.1z"/>
<path class="st4" d="M91.8,0H0l0,0v15.7v58.7v15.7l0,0h97l0,0V74.4V15.7V0H91.8z"/>
</svg>
