<svg width="269" height="89" viewBox="0 0 269 89" fill="none" xmlns="http://www.w3.org/2000/svg">
<path d="M4.544 7.36C5.088 7.36 5.536 7.45067 5.888 7.632C6.24 7.80267 6.50667 7.98933 6.688 8.192C6.88 8.39467 6.99733 8.53333 7.04 8.608H7.168V7.52H9.6V16H7.168V14.912H7.04C6.99733 14.9867 6.88 15.1253 6.688 15.328C6.50667 15.5307 6.24 15.7227 5.888 15.904C5.536 16.0747 5.088 16.16 4.544 16.16C3.91467 16.16 3.36533 16.0373 2.896 15.792C2.43733 15.536 2.05333 15.2 1.744 14.784C1.43467 14.3573 1.2 13.8827 1.04 13.36C0.890667 12.8373 0.816 12.304 0.816 11.76C0.816 11.216 0.890667 10.6827 1.04 10.16C1.2 9.63733 1.43467 9.168 1.744 8.752C2.05333 8.32533 2.43733 7.98933 2.896 7.744C3.36533 7.488 3.91467 7.36 4.544 7.36ZM5.248 9.328C4.81067 9.328 4.44267 9.45067 4.144 9.696C3.856 9.93067 3.63733 10.2347 3.488 10.608C3.34933 10.9813 3.28 11.3653 3.28 11.76C3.28 12.1547 3.34933 12.5387 3.488 12.912C3.63733 13.2853 3.856 13.5947 4.144 13.84C4.44267 14.0747 4.81067 14.192 5.248 14.192C5.68533 14.192 6.048 14.0747 6.336 13.84C6.63467 13.5947 6.85333 13.2853 6.992 12.912C7.14133 12.5387 7.216 12.1547 7.216 11.76C7.216 11.3653 7.14133 10.9813 6.992 10.608C6.85333 10.2347 6.63467 9.93067 6.336 9.696C6.048 9.45067 5.68533 9.328 5.248 9.328ZM11.6661 16V3.84H14.0981V16H11.6661ZM16.2755 16V3.84H18.7075V16H16.2755ZM23.9644 16L27.9964 4.16H31.2764L35.3084 16H32.7164L31.9644 13.68H27.3244L26.5564 16H23.9644ZM28.0124 11.536H31.2764L29.6444 6.592L28.0124 11.536ZM36.7093 16V7.52H39.1413V8.736H39.2213C39.3173 8.56533 39.4559 8.37333 39.6373 8.16C39.8293 7.94667 40.0799 7.76 40.3893 7.6C40.7093 7.44 41.1146 7.36 41.6053 7.36C42.2666 7.36 42.8053 7.51467 43.2213 7.824C43.6373 8.12267 43.9413 8.512 44.1333 8.992C44.3253 9.46133 44.4213 9.95733 44.4213 10.48V16H41.9893V10.896C41.9893 10.4907 41.8773 10.1333 41.6533 9.824C41.4399 9.51467 41.0933 9.36 40.6133 9.36C40.2506 9.36 39.9626 9.44533 39.7493 9.616C39.5359 9.78667 39.3813 10.0053 39.2853 10.272C39.1893 10.5387 39.1413 10.8213 39.1413 11.12V16H36.7093ZM46.2718 16V7.52H48.7038V8.736H48.7838C48.8798 8.56533 49.0184 8.37333 49.1998 8.16C49.3918 7.94667 49.6424 7.76 49.9518 7.6C50.2718 7.44 50.6771 7.36 51.1678 7.36C51.8291 7.36 52.3678 7.51467 52.7838 7.824C53.1998 8.12267 53.5038 8.512 53.6958 8.992C53.8878 9.46133 53.9838 9.95733 53.9838 10.48V16H51.5518V10.896C51.5518 10.4907 51.4398 10.1333 51.2158 9.824C51.0024 9.51467 50.6558 9.36 50.1758 9.36C49.8131 9.36 49.5251 9.44533 49.3118 9.616C49.0984 9.78667 48.9438 10.0053 48.8478 10.272C48.7518 10.5387 48.7038 10.8213 48.7038 11.12V16H46.2718ZM60.0765 16.16C59.1272 16.16 58.3218 15.9573 57.6605 15.552C56.9992 15.136 56.4925 14.5973 56.1405 13.936C55.7992 13.264 55.6285 12.5387 55.6285 11.76C55.6285 10.9813 55.7992 10.2613 56.1405 9.6C56.4925 8.928 56.9992 8.38933 57.6605 7.984C58.3218 7.568 59.1272 7.36 60.0765 7.36C61.0258 7.36 61.8312 7.568 62.4925 7.984C63.1538 8.38933 63.6552 8.928 63.9965 9.6C64.3485 10.2613 64.5245 10.9813 64.5245 11.76C64.5245 12.5387 64.3485 13.264 63.9965 13.936C63.6552 14.5973 63.1538 15.136 62.4925 15.552C61.8312 15.9573 61.0258 16.16 60.0765 16.16ZM60.0765 14.176C60.5032 14.176 60.8605 14.064 61.1485 13.84C61.4472 13.616 61.6765 13.3227 61.8365 12.96C61.9965 12.5867 62.0765 12.1867 62.0765 11.76C62.0765 11.3227 61.9965 10.9227 61.8365 10.56C61.6765 10.1973 61.4472 9.904 61.1485 9.68C60.8605 9.456 60.5032 9.344 60.0765 9.344C59.6498 9.344 59.2872 9.456 58.9885 9.68C58.6898 9.904 58.4605 10.1973 58.3005 10.56C58.1512 10.9227 58.0765 11.3227 58.0765 11.76C58.0765 12.1867 58.1512 12.5867 58.3005 12.96C58.4605 13.3227 58.6898 13.616 58.9885 13.84C59.2872 14.064 59.6498 14.176 60.0765 14.176ZM68.9118 16.16C68.3144 16.16 67.8184 16.032 67.4238 15.776C67.0398 15.52 66.7518 15.1787 66.5598 14.752C66.3678 14.3147 66.2718 13.824 66.2718 13.28V7.52H68.6878V12.8C68.6878 13.2053 68.7944 13.536 69.0078 13.792C69.2211 14.0373 69.5358 14.16 69.9518 14.16C70.3038 14.16 70.5811 14.0747 70.7838 13.904C70.9971 13.7333 71.1518 13.5147 71.2478 13.248C71.3438 12.9813 71.3918 12.6987 71.3918 12.4V7.52H73.8238V16H71.3918V14.8H71.2958C71.1144 15.1307 70.8318 15.44 70.4478 15.728C70.0744 16.016 69.5624 16.16 68.9118 16.16ZM75.678 16V7.52H78.11V8.736H78.19C78.286 8.56533 78.4247 8.37333 78.606 8.16C78.798 7.94667 79.0487 7.76 79.358 7.6C79.678 7.44 80.0833 7.36 80.574 7.36C81.2353 7.36 81.774 7.51467 82.19 7.824C82.606 8.12267 82.91 8.512 83.102 8.992C83.294 9.46133 83.39 9.95733 83.39 10.48V16H80.958V10.896C80.958 10.4907 80.846 10.1333 80.622 9.824C80.4087 9.51467 80.062 9.36 79.582 9.36C79.2193 9.36 78.9313 9.44533 78.718 9.616C78.5047 9.78667 78.35 10.0053 78.254 10.272C78.158 10.5387 78.11 10.8213 78.11 11.12V16H75.678ZM89.4508 16.16C88.7041 16.16 88.0534 16.0373 87.4988 15.792C86.9441 15.536 86.4854 15.2 86.1228 14.784C85.7601 14.368 85.4881 13.8987 85.3068 13.376C85.1254 12.8427 85.0348 12.304 85.0348 11.76C85.0348 11.216 85.1254 10.6827 85.3068 10.16C85.4881 9.63733 85.7601 9.168 86.1228 8.752C86.4854 8.32533 86.9441 7.98933 87.4988 7.744C88.0534 7.488 88.7041 7.36 89.4508 7.36C90.2081 7.36 90.8321 7.472 91.3228 7.696C91.8134 7.90933 92.2028 8.18133 92.4908 8.512C92.7894 8.832 93.0081 9.15733 93.1468 9.488C93.2854 9.808 93.3708 10.08 93.4028 10.304C93.4454 10.5173 93.4668 10.624 93.4668 10.624H91.1948C91.1948 10.624 91.1734 10.56 91.1308 10.432C91.0988 10.2933 91.0241 10.1387 90.9068 9.968C90.8001 9.78667 90.6348 9.632 90.4108 9.504C90.1868 9.36533 89.8881 9.296 89.5148 9.296C89.0561 9.296 88.6721 9.41333 88.3628 9.648C88.0641 9.872 87.8401 10.1707 87.6908 10.544C87.5414 10.9173 87.4668 11.3227 87.4668 11.76C87.4668 12.1973 87.5414 12.6027 87.6908 12.976C87.8401 13.3493 88.0641 13.6533 88.3628 13.888C88.6721 14.112 89.0561 14.224 89.5148 14.224C89.8881 14.224 90.1868 14.16 90.4108 14.032C90.6348 13.8933 90.8001 13.7387 90.9068 13.568C91.0241 13.3867 91.0988 13.232 91.1308 13.104C91.1734 12.9653 91.1948 12.896 91.1948 12.896H93.4668C93.4668 12.896 93.4454 13.008 93.4028 13.232C93.3708 13.4453 93.2854 13.7173 93.1468 14.048C93.0081 14.368 92.7894 14.6933 92.4908 15.024C92.2028 15.344 91.8134 15.616 91.3228 15.84C90.8321 16.0533 90.2081 16.16 89.4508 16.16ZM99.3395 16.16C98.5928 16.16 97.9475 16.0373 97.4035 15.792C96.8595 15.536 96.4115 15.2 96.0595 14.784C95.7075 14.3573 95.4408 13.8827 95.2595 13.36C95.0888 12.8373 95.0035 12.2987 95.0035 11.744C95.0035 11.2107 95.0835 10.688 95.2435 10.176C95.4142 9.65333 95.6702 9.17867 96.0115 8.752C96.3635 8.32533 96.8062 7.98933 97.3395 7.744C97.8835 7.488 98.5235 7.36 99.2595 7.36C100.038 7.36 100.726 7.53067 101.324 7.872C101.932 8.21333 102.406 8.72 102.748 9.392C103.089 10.0533 103.26 10.8587 103.26 11.808V12.4H97.4515C97.4835 12.912 97.6595 13.3547 97.9795 13.728C98.3102 14.1013 98.7635 14.288 99.3395 14.288C99.6702 14.288 99.9368 14.24 100.14 14.144C100.353 14.0373 100.518 13.92 100.636 13.792C100.753 13.6533 100.833 13.5307 100.876 13.424C100.918 13.3173 100.94 13.264 100.94 13.264H103.18C103.18 13.264 103.153 13.3653 103.1 13.568C103.057 13.76 102.961 14 102.812 14.288C102.662 14.576 102.444 14.864 102.156 15.152C101.878 15.44 101.51 15.68 101.052 15.872C100.593 16.064 100.022 16.16 99.3395 16.16ZM97.4515 10.928H100.924C100.892 10.3413 100.716 9.904 100.396 9.616C100.076 9.328 99.6808 9.184 99.2115 9.184C98.7422 9.184 98.3422 9.33867 98.0115 9.648C97.6808 9.94667 97.4942 10.3733 97.4515 10.928ZM104.912 16V7.52H107.344V8.672H107.424C107.606 8.36267 107.878 8.06933 108.24 7.792C108.603 7.504 109.099 7.36 109.728 7.36C110.368 7.36 110.88 7.50933 111.264 7.808C111.659 8.10667 111.947 8.47467 112.128 8.912H112.16C112.299 8.66667 112.48 8.42667 112.704 8.192C112.939 7.94667 113.227 7.74933 113.568 7.6C113.92 7.44 114.331 7.36 114.8 7.36C115.387 7.36 115.872 7.49333 116.256 7.76C116.64 8.02667 116.923 8.37867 117.104 8.816C117.296 9.24267 117.392 9.70133 117.392 10.192V16H114.96V10.8C114.96 10.384 114.854 10.0427 114.64 9.776C114.438 9.49867 114.128 9.36 113.712 9.36C113.392 9.36 113.131 9.44 112.928 9.6C112.736 9.76 112.592 9.968 112.496 10.224C112.411 10.4693 112.368 10.7253 112.368 10.992V16H109.936V10.8C109.936 10.384 109.83 10.0427 109.616 9.776C109.414 9.49867 109.104 9.36 108.688 9.36C108.368 9.36 108.107 9.44 107.904 9.6C107.712 9.76 107.568 9.968 107.472 10.224C107.387 10.4693 107.344 10.7253 107.344 10.992V16H104.912ZM123.386 16.16C122.64 16.16 121.994 16.0373 121.45 15.792C120.906 15.536 120.458 15.2 120.106 14.784C119.754 14.3573 119.488 13.8827 119.306 13.36C119.136 12.8373 119.05 12.2987 119.05 11.744C119.05 11.2107 119.13 10.688 119.29 10.176C119.461 9.65333 119.717 9.17867 120.058 8.752C120.41 8.32533 120.853 7.98933 121.386 7.744C121.93 7.488 122.57 7.36 123.306 7.36C124.085 7.36 124.773 7.53067 125.37 7.872C125.978 8.21333 126.453 8.72 126.794 9.392C127.136 10.0533 127.306 10.8587 127.306 11.808V12.4H121.498C121.53 12.912 121.706 13.3547 122.026 13.728C122.357 14.1013 122.81 14.288 123.386 14.288C123.717 14.288 123.984 14.24 124.186 14.144C124.4 14.0373 124.565 13.92 124.682 13.792C124.8 13.6533 124.88 13.5307 124.922 13.424C124.965 13.3173 124.986 13.264 124.986 13.264H127.226C127.226 13.264 127.2 13.3653 127.146 13.568C127.104 13.76 127.008 14 126.858 14.288C126.709 14.576 126.49 14.864 126.202 15.152C125.925 15.44 125.557 15.68 125.098 15.872C124.64 16.064 124.069 16.16 123.386 16.16ZM121.498 10.928H124.97C124.938 10.3413 124.762 9.904 124.442 9.616C124.122 9.328 123.728 9.184 123.258 9.184C122.789 9.184 122.389 9.33867 122.058 9.648C121.728 9.94667 121.541 10.3733 121.498 10.928ZM128.959 16V7.52H131.391V8.736H131.471C131.567 8.56533 131.706 8.37333 131.887 8.16C132.079 7.94667 132.33 7.76 132.639 7.6C132.959 7.44 133.365 7.36 133.855 7.36C134.517 7.36 135.055 7.51467 135.471 7.824C135.887 8.12267 136.191 8.512 136.383 8.992C136.575 9.46133 136.671 9.95733 136.671 10.48V16H134.239V10.896C134.239 10.4907 134.127 10.1333 133.903 9.824C133.69 9.51467 133.343 9.36 132.863 9.36C132.501 9.36 132.213 9.44533 131.999 9.616C131.786 9.78667 131.631 10.0053 131.535 10.272C131.439 10.5387 131.391 10.8213 131.391 11.12V16H128.959ZM142.349 16.16C141.687 16.16 141.159 16.064 140.765 15.872C140.37 15.6693 140.071 15.4187 139.869 15.12C139.666 14.8107 139.533 14.4853 139.469 14.144C139.405 13.8027 139.373 13.488 139.373 13.2V9.456H137.933V7.52H139.373V5.424H141.805V7.52H143.613V9.456H141.805V13.136C141.805 13.488 141.895 13.76 142.077 13.952C142.269 14.144 142.583 14.24 143.021 14.24C143.213 14.24 143.389 14.224 143.549 14.192C143.709 14.16 143.789 14.144 143.789 14.144V16.016C143.789 16.016 143.645 16.0373 143.357 16.08C143.069 16.1333 142.733 16.16 142.349 16.16ZM148.98 16.16C148.276 16.16 147.695 16.064 147.236 15.872C146.778 15.68 146.41 15.4453 146.132 15.168C145.866 14.88 145.663 14.5973 145.524 14.32C145.396 14.032 145.311 13.792 145.268 13.6C145.236 13.408 145.22 13.312 145.22 13.312H147.476C147.476 13.312 147.492 13.3653 147.524 13.472C147.556 13.5787 147.626 13.7013 147.732 13.84C147.85 13.9787 148.015 14.1013 148.228 14.208C148.442 14.3147 148.73 14.368 149.092 14.368C149.54 14.368 149.844 14.2773 150.004 14.096C150.175 13.9147 150.26 13.7333 150.26 13.552C150.26 13.168 149.946 12.912 149.316 12.784L148.164 12.56C147.674 12.464 147.21 12.3253 146.772 12.144C146.346 11.952 145.999 11.6907 145.732 11.36C145.476 11.0187 145.348 10.5813 145.348 10.048C145.348 9.536 145.482 9.07733 145.748 8.672C146.015 8.26667 146.394 7.94667 146.884 7.712C147.386 7.47733 147.983 7.36 148.676 7.36C149.327 7.36 149.866 7.45067 150.292 7.632C150.73 7.80267 151.076 8.02133 151.332 8.288C151.588 8.544 151.78 8.80533 151.908 9.072C152.036 9.328 152.116 9.54667 152.148 9.728C152.191 9.89867 152.212 9.984 152.212 9.984H150.036C150.036 9.984 150.004 9.91467 149.94 9.776C149.876 9.62667 149.743 9.48267 149.54 9.344C149.348 9.19467 149.05 9.12 148.644 9.12C148.228 9.12 147.94 9.20533 147.78 9.376C147.62 9.536 147.54 9.70667 147.54 9.888C147.54 10.1013 147.631 10.2613 147.812 10.368C148.004 10.4747 148.25 10.56 148.548 10.624L149.652 10.848C150.463 11.008 151.13 11.2907 151.652 11.696C152.175 12.0907 152.436 12.6667 152.436 13.424C152.436 13.936 152.303 14.4 152.036 14.816C151.77 15.232 151.38 15.5627 150.868 15.808C150.356 16.0427 149.727 16.16 148.98 16.16Z" fill="black"/>
<path d="M181.776 22.776C181.456 22.776 181.196 22.676 180.996 22.476C180.796 22.268 180.696 22.024 180.696 21.744C180.696 21.448 180.796 21.2 180.996 21C181.196 20.792 181.456 20.688 181.776 20.688C182.08 20.688 182.336 20.792 182.544 21C182.752 21.2 182.856 21.448 182.856 21.744C182.856 22.024 182.752 22.268 182.544 22.476C182.336 22.676 182.08 22.776 181.776 22.776ZM180.864 30V23.64H182.688V30H180.864ZM184.247 30V23.64H186.071V24.552H186.131C186.203 24.424 186.307 24.28 186.443 24.12C186.587 23.96 186.775 23.82 187.007 23.7C187.247 23.58 187.551 23.52 187.919 23.52C188.415 23.52 188.819 23.636 189.131 23.868C189.443 24.092 189.671 24.384 189.815 24.744C189.959 25.096 190.031 25.468 190.031 25.86V30H188.207V26.172C188.207 25.868 188.123 25.6 187.955 25.368C187.795 25.136 187.535 25.02 187.175 25.02C186.903 25.02 186.687 25.084 186.527 25.212C186.367 25.34 186.251 25.504 186.179 25.704C186.107 25.904 186.071 26.116 186.071 26.34V30H184.247ZM194.7 32.34C194.484 32.34 194.312 32.332 194.184 32.316C194.056 32.3 193.992 32.292 193.992 32.292V30.828C193.992 30.828 194.044 30.832 194.148 30.84C194.26 30.848 194.396 30.852 194.556 30.852C194.94 30.852 195.256 30.796 195.504 30.684C195.752 30.58 195.968 30.372 196.152 30.06L193.8 23.64H195.624L197.1 27.948L198.54 23.64H200.376L198.096 29.748C197.888 30.332 197.636 30.816 197.34 31.2C197.052 31.584 196.696 31.868 196.272 32.052C195.848 32.244 195.324 32.34 194.7 32.34ZM204.21 30.12C203.498 30.12 202.894 29.968 202.398 29.664C201.902 29.352 201.522 28.948 201.258 28.452C201.002 27.948 200.874 27.404 200.874 26.82C200.874 26.236 201.002 25.696 201.258 25.2C201.522 24.696 201.902 24.292 202.398 23.988C202.894 23.676 203.498 23.52 204.21 23.52C204.922 23.52 205.526 23.676 206.022 23.988C206.518 24.292 206.894 24.696 207.15 25.2C207.414 25.696 207.546 26.236 207.546 26.82C207.546 27.404 207.414 27.948 207.15 28.452C206.894 28.948 206.518 29.352 206.022 29.664C205.526 29.968 204.922 30.12 204.21 30.12ZM204.21 28.632C204.53 28.632 204.798 28.548 205.014 28.38C205.238 28.212 205.41 27.992 205.53 27.72C205.65 27.44 205.71 27.14 205.71 26.82C205.71 26.492 205.65 26.192 205.53 25.92C205.41 25.648 205.238 25.428 205.014 25.26C204.798 25.092 204.53 25.008 204.21 25.008C203.89 25.008 203.618 25.092 203.394 25.26C203.17 25.428 202.998 25.648 202.878 25.92C202.766 26.192 202.71 26.492 202.71 26.82C202.71 27.14 202.766 27.44 202.878 27.72C202.998 27.992 203.17 28.212 203.394 28.38C203.618 28.548 203.89 28.632 204.21 28.632ZM210.836 30.12C210.388 30.12 210.016 30.024 209.72 29.832C209.432 29.64 209.216 29.384 209.072 29.064C208.928 28.736 208.856 28.368 208.856 27.96V23.64H210.668V27.6C210.668 27.904 210.748 28.152 210.908 28.344C211.068 28.528 211.304 28.62 211.616 28.62C211.88 28.62 212.088 28.556 212.24 28.428C212.4 28.3 212.516 28.136 212.588 27.936C212.66 27.736 212.696 27.524 212.696 27.3V23.64H214.52V30H212.696V29.1H212.624C212.488 29.348 212.276 29.58 211.988 29.796C211.708 30.012 211.324 30.12 210.836 30.12ZM215.911 30V23.64H217.723V24.564H217.783C217.855 24.396 217.955 24.232 218.083 24.072C218.211 23.912 218.387 23.78 218.611 23.676C218.835 23.572 219.123 23.52 219.475 23.52C219.651 23.52 219.791 23.532 219.895 23.556C219.999 23.572 220.051 23.58 220.051 23.58V25.38C220.051 25.38 219.991 25.368 219.871 25.344C219.759 25.32 219.611 25.308 219.427 25.308C218.859 25.308 218.435 25.464 218.155 25.776C217.875 26.08 217.735 26.58 217.735 27.276V30H215.911ZM225.729 30L223.401 23.64H225.225L226.713 27.948L228.141 23.64H229.977L227.637 30H225.729ZM232.026 22.776C231.706 22.776 231.446 22.676 231.246 22.476C231.046 22.268 230.946 22.024 230.946 21.744C230.946 21.448 231.046 21.2 231.246 21C231.446 20.792 231.706 20.688 232.026 20.688C232.33 20.688 232.586 20.792 232.794 21C233.002 21.2 233.106 21.448 233.106 21.744C233.106 22.024 233.002 22.268 232.794 22.476C232.586 22.676 232.33 22.776 232.026 22.776ZM231.114 30V23.64H232.938V30H231.114ZM234.617 30V20.88H236.441V30H234.617ZM238.074 30V20.88H239.898V30H238.074ZM244.053 23.52C244.461 23.52 244.797 23.588 245.061 23.724C245.325 23.852 245.525 23.992 245.661 24.144C245.805 24.296 245.893 24.4 245.925 24.456H246.021V23.64H247.845V30H246.021V29.184H245.925C245.893 29.24 245.805 29.344 245.661 29.496C245.525 29.648 245.325 29.792 245.061 29.928C244.797 30.056 244.461 30.12 244.053 30.12C243.581 30.12 243.169 30.028 242.817 29.844C242.473 29.652 242.185 29.4 241.953 29.088C241.721 28.768 241.545 28.412 241.425 28.02C241.313 27.628 241.257 27.228 241.257 26.82C241.257 26.412 241.313 26.012 241.425 25.62C241.545 25.228 241.721 24.876 241.953 24.564C242.185 24.244 242.473 23.992 242.817 23.808C243.169 23.616 243.581 23.52 244.053 23.52ZM244.581 24.996C244.253 24.996 243.977 25.088 243.753 25.272C243.537 25.448 243.373 25.676 243.261 25.956C243.157 26.236 243.105 26.524 243.105 26.82C243.105 27.116 243.157 27.404 243.261 27.684C243.373 27.964 243.537 28.196 243.753 28.38C243.977 28.556 244.253 28.644 244.581 28.644C244.909 28.644 245.181 28.556 245.397 28.38C245.621 28.196 245.785 27.964 245.889 27.684C246.001 27.404 246.057 27.116 246.057 26.82C246.057 26.524 246.001 26.236 245.889 25.956C245.785 25.676 245.621 25.448 245.397 25.272C245.181 25.088 244.909 24.996 244.581 24.996ZM252.573 32.544C251.981 32.544 251.493 32.472 251.109 32.328C250.733 32.184 250.433 32 250.209 31.776C249.985 31.56 249.821 31.344 249.717 31.128C249.613 30.912 249.545 30.728 249.513 30.576C249.489 30.432 249.477 30.36 249.477 30.36H251.253C251.253 30.36 251.265 30.396 251.289 30.468C251.321 30.548 251.381 30.636 251.469 30.732C251.557 30.836 251.685 30.924 251.853 30.996C252.029 31.076 252.261 31.116 252.549 31.116C253.045 31.116 253.409 30.976 253.641 30.696C253.881 30.416 254.001 30.048 254.001 29.592V28.92H253.917C253.837 29.048 253.717 29.188 253.557 29.34C253.397 29.492 253.193 29.62 252.945 29.724C252.697 29.828 252.397 29.88 252.045 29.88C251.573 29.88 251.161 29.792 250.809 29.616C250.457 29.432 250.161 29.188 249.921 28.884C249.689 28.58 249.513 28.24 249.393 27.864C249.281 27.488 249.225 27.1 249.225 26.7C249.225 26.308 249.281 25.924 249.393 25.548C249.513 25.164 249.689 24.82 249.921 24.516C250.161 24.212 250.457 23.972 250.809 23.796C251.161 23.612 251.573 23.52 252.045 23.52C252.397 23.52 252.697 23.576 252.945 23.688C253.193 23.792 253.397 23.92 253.557 24.072C253.725 24.216 253.845 24.356 253.917 24.492H254.001V23.64H255.825V29.592C255.825 30.12 255.709 30.608 255.477 31.056C255.245 31.504 254.889 31.864 254.409 32.136C253.929 32.408 253.317 32.544 252.573 32.544ZM252.549 28.44C252.885 28.44 253.161 28.356 253.377 28.188C253.601 28.02 253.769 27.804 253.881 27.54C253.993 27.268 254.049 26.988 254.049 26.7C254.049 26.404 253.993 26.124 253.881 25.86C253.769 25.596 253.601 25.38 253.377 25.212C253.161 25.044 252.885 24.96 252.549 24.96C252.221 24.96 251.945 25.044 251.721 25.212C251.505 25.38 251.341 25.596 251.229 25.86C251.117 26.124 251.061 26.404 251.061 26.7C251.061 26.988 251.117 27.268 251.229 27.54C251.341 27.804 251.505 28.02 251.721 28.188C251.945 28.356 252.221 28.44 252.549 28.44ZM260.294 30.12C259.734 30.12 259.25 30.028 258.842 29.844C258.434 29.652 258.098 29.4 257.834 29.088C257.57 28.768 257.37 28.412 257.234 28.02C257.106 27.628 257.042 27.224 257.042 26.808C257.042 26.408 257.102 26.016 257.222 25.632C257.35 25.24 257.542 24.884 257.798 24.564C258.062 24.244 258.394 23.992 258.794 23.808C259.202 23.616 259.682 23.52 260.234 23.52C260.818 23.52 261.334 23.648 261.782 23.904C262.238 24.16 262.594 24.54 262.85 25.044C263.106 25.54 263.234 26.144 263.234 26.856V27.3H258.878C258.902 27.684 259.034 28.016 259.274 28.296C259.522 28.576 259.862 28.716 260.294 28.716C260.542 28.716 260.742 28.68 260.894 28.608C261.054 28.528 261.178 28.44 261.266 28.344C261.354 28.24 261.414 28.148 261.446 28.068C261.478 27.988 261.494 27.948 261.494 27.948H263.174C263.174 27.948 263.154 28.024 263.114 28.176C263.082 28.32 263.01 28.5 262.898 28.716C262.786 28.932 262.622 29.148 262.406 29.364C262.198 29.58 261.922 29.76 261.578 29.904C261.234 30.048 260.806 30.12 260.294 30.12ZM258.878 26.196H261.482C261.458 25.756 261.326 25.428 261.086 25.212C260.846 24.996 260.55 24.888 260.198 24.888C259.846 24.888 259.546 25.004 259.298 25.236C259.05 25.46 258.91 25.78 258.878 26.196Z" fill="black"/>
<path d="M181.776 58.776C181.456 58.776 181.196 58.676 180.996 58.476C180.796 58.268 180.696 58.024 180.696 57.744C180.696 57.448 180.796 57.2 180.996 57C181.196 56.792 181.456 56.688 181.776 56.688C182.08 56.688 182.336 56.792 182.544 57C182.752 57.2 182.856 57.448 182.856 57.744C182.856 58.024 182.752 58.268 182.544 58.476C182.336 58.676 182.08 58.776 181.776 58.776ZM180.864 66V59.64H182.688V66H180.864ZM184.247 66V59.64H186.071V60.552H186.131C186.203 60.424 186.307 60.28 186.443 60.12C186.587 59.96 186.775 59.82 187.007 59.7C187.247 59.58 187.551 59.52 187.919 59.52C188.415 59.52 188.819 59.636 189.131 59.868C189.443 60.092 189.671 60.384 189.815 60.744C189.959 61.096 190.031 61.468 190.031 61.86V66H188.207V62.172C188.207 61.868 188.123 61.6 187.955 61.368C187.795 61.136 187.535 61.02 187.175 61.02C186.903 61.02 186.687 61.084 186.527 61.212C186.367 61.34 186.251 61.504 186.179 61.704C186.107 61.904 186.071 62.116 186.071 62.34V66H184.247ZM194.304 66V57.12H196.8L198.828 61.692L200.916 57.12H203.328V66H201.504V59.952L199.68 63.924H197.964L196.128 59.928V66H194.304ZM206.817 66.12C206.369 66.12 205.997 66.024 205.701 65.832C205.413 65.64 205.197 65.384 205.053 65.064C204.909 64.736 204.837 64.368 204.837 63.96V59.64H206.649V63.6C206.649 63.904 206.729 64.152 206.889 64.344C207.049 64.528 207.285 64.62 207.597 64.62C207.861 64.62 208.069 64.556 208.221 64.428C208.381 64.3 208.497 64.136 208.569 63.936C208.641 63.736 208.677 63.524 208.677 63.3V59.64H210.501V66H208.677V65.1H208.605C208.469 65.348 208.257 65.58 207.969 65.796C207.689 66.012 207.305 66.12 206.817 66.12ZM211.891 66V59.64H213.703V60.564H213.763C213.835 60.396 213.935 60.232 214.063 60.072C214.191 59.912 214.367 59.78 214.591 59.676C214.815 59.572 215.103 59.52 215.455 59.52C215.631 59.52 215.771 59.532 215.875 59.556C215.979 59.572 216.031 59.58 216.031 59.58V61.38C216.031 61.38 215.971 61.368 215.851 61.344C215.739 61.32 215.591 61.308 215.407 61.308C214.839 61.308 214.415 61.464 214.135 61.776C213.855 62.08 213.715 62.58 213.715 63.276V66H211.891ZM220.07 66.12C219.574 66.12 219.178 66.048 218.882 65.904C218.586 65.752 218.362 65.564 218.21 65.34C218.058 65.108 217.958 64.864 217.91 64.608C217.862 64.352 217.838 64.116 217.838 63.9V61.092H216.758V59.64H217.838V58.068H219.662V59.64H221.018V61.092H219.662V63.852C219.662 64.116 219.73 64.32 219.866 64.464C220.01 64.608 220.246 64.68 220.574 64.68C220.718 64.68 220.85 64.668 220.97 64.644C221.09 64.62 221.15 64.608 221.15 64.608V66.012C221.15 66.012 221.042 66.028 220.826 66.06C220.61 66.1 220.358 66.12 220.07 66.12ZM222.488 66V56.88H224.312V60.552H224.372C224.444 60.424 224.548 60.28 224.684 60.12C224.828 59.96 225.016 59.82 225.248 59.7C225.488 59.58 225.792 59.52 226.16 59.52C226.656 59.52 227.06 59.636 227.372 59.868C227.684 60.092 227.912 60.384 228.056 60.744C228.2 61.096 228.272 61.468 228.272 61.86V66H226.448V62.172C226.448 61.868 226.364 61.6 226.196 61.368C226.036 61.136 225.776 61.02 225.416 61.02C225.144 61.02 224.928 61.084 224.768 61.212C224.608 61.34 224.492 61.504 224.42 61.704C224.348 61.904 224.312 62.116 224.312 62.34V66H222.488ZM229.927 68.34C229.711 68.34 229.539 68.332 229.411 68.316C229.283 68.3 229.219 68.292 229.219 68.292V66.828C229.219 66.828 229.271 66.832 229.375 66.84C229.487 66.848 229.623 66.852 229.783 66.852C230.167 66.852 230.483 66.796 230.731 66.684C230.979 66.58 231.195 66.372 231.379 66.06L229.027 59.64H230.851L232.327 63.948L233.767 59.64H235.603L233.323 65.748C233.115 66.332 232.863 66.816 232.567 67.2C232.279 67.584 231.923 67.868 231.499 68.052C231.075 68.244 230.551 68.34 229.927 68.34ZM243.525 66.12C242.789 66.12 242.145 65.992 241.593 65.736C241.049 65.472 240.593 65.124 240.225 64.692C239.857 64.252 239.581 63.76 239.397 63.216C239.213 62.672 239.121 62.116 239.121 61.548C239.121 60.988 239.213 60.436 239.397 59.892C239.581 59.348 239.857 58.86 240.225 58.428C240.593 57.988 241.049 57.64 241.593 57.384C242.145 57.128 242.789 57 243.525 57C244.141 57 244.665 57.08 245.097 57.24C245.537 57.392 245.901 57.592 246.189 57.84C246.485 58.08 246.721 58.34 246.897 58.62C247.081 58.892 247.217 59.152 247.305 59.4C247.393 59.64 247.449 59.84 247.473 60C247.505 60.152 247.521 60.228 247.521 60.228H245.685C245.685 60.228 245.669 60.176 245.637 60.072C245.613 59.96 245.561 59.828 245.481 59.676C245.401 59.516 245.281 59.36 245.121 59.208C244.969 59.056 244.761 58.928 244.497 58.824C244.241 58.712 243.921 58.656 243.537 58.656C242.985 58.656 242.521 58.8 242.145 59.088C241.777 59.368 241.497 59.728 241.305 60.168C241.121 60.608 241.029 61.068 241.029 61.548C241.029 62.028 241.121 62.492 241.305 62.94C241.497 63.38 241.777 63.744 242.145 64.032C242.521 64.312 242.985 64.452 243.537 64.452C243.921 64.452 244.241 64.4 244.497 64.296C244.761 64.192 244.969 64.064 245.121 63.912C245.281 63.752 245.401 63.596 245.481 63.444C245.561 63.284 245.613 63.152 245.637 63.048C245.669 62.944 245.685 62.892 245.685 62.892H247.521C247.521 62.892 247.505 62.972 247.473 63.132C247.449 63.284 247.393 63.484 247.305 63.732C247.217 63.972 247.081 64.232 246.897 64.512C246.721 64.784 246.485 65.044 246.189 65.292C245.901 65.532 245.537 65.732 245.097 65.892C244.665 66.044 244.141 66.12 243.525 66.12ZM248.82 66V56.88H250.644V60.552H250.704C250.776 60.424 250.88 60.28 251.016 60.12C251.16 59.96 251.348 59.82 251.58 59.7C251.82 59.58 252.124 59.52 252.492 59.52C252.988 59.52 253.392 59.636 253.704 59.868C254.016 60.092 254.244 60.384 254.388 60.744C254.532 61.096 254.604 61.468 254.604 61.86V66H252.78V62.172C252.78 61.868 252.696 61.6 252.528 61.368C252.368 61.136 252.108 61.02 251.748 61.02C251.476 61.02 251.26 61.084 251.1 61.212C250.94 61.34 250.824 61.504 250.752 61.704C250.68 61.904 250.644 62.116 250.644 62.34V66H248.82ZM258.642 59.52C259.05 59.52 259.386 59.588 259.65 59.724C259.914 59.852 260.114 59.992 260.25 60.144C260.394 60.296 260.482 60.4 260.514 60.456H260.61V59.64H262.434V66H260.61V65.184H260.514C260.482 65.24 260.394 65.344 260.25 65.496C260.114 65.648 259.914 65.792 259.65 65.928C259.386 66.056 259.05 66.12 258.642 66.12C258.17 66.12 257.758 66.028 257.406 65.844C257.062 65.652 256.774 65.4 256.542 65.088C256.31 64.768 256.134 64.412 256.014 64.02C255.902 63.628 255.846 63.228 255.846 62.82C255.846 62.412 255.902 62.012 256.014 61.62C256.134 61.228 256.31 60.876 256.542 60.564C256.774 60.244 257.062 59.992 257.406 59.808C257.758 59.616 258.17 59.52 258.642 59.52ZM259.17 60.996C258.842 60.996 258.566 61.088 258.342 61.272C258.126 61.448 257.962 61.676 257.85 61.956C257.746 62.236 257.694 62.524 257.694 62.82C257.694 63.116 257.746 63.404 257.85 63.684C257.962 63.964 258.126 64.196 258.342 64.38C258.566 64.556 258.842 64.644 259.17 64.644C259.498 64.644 259.77 64.556 259.986 64.38C260.21 64.196 260.374 63.964 260.478 63.684C260.59 63.404 260.646 63.116 260.646 62.82C260.646 62.524 260.59 62.236 260.478 61.956C260.374 61.676 260.21 61.448 259.986 61.272C259.77 61.088 259.498 60.996 259.17 60.996ZM266.699 66.12C266.203 66.12 265.807 66.048 265.511 65.904C265.215 65.752 264.991 65.564 264.839 65.34C264.687 65.108 264.587 64.864 264.539 64.608C264.491 64.352 264.467 64.116 264.467 63.9V61.092H263.387V59.64H264.467V58.068H266.291V59.64H267.647V61.092H266.291V63.852C266.291 64.116 266.359 64.32 266.495 64.464C266.639 64.608 266.875 64.68 267.203 64.68C267.347 64.68 267.479 64.668 267.599 64.644C267.719 64.62 267.779 64.608 267.779 64.608V66.012C267.779 66.012 267.671 66.028 267.455 66.06C267.239 66.1 266.987 66.12 266.699 66.12Z" fill="black"/>
<path d="M111.088 39V27.16H113.344L118.448 34.712V27.16H120.896V39H118.608L113.536 31.656V39H111.088ZM127.043 39.16C126.296 39.16 125.651 39.0373 125.107 38.792C124.563 38.536 124.115 38.2 123.763 37.784C123.411 37.3573 123.144 36.8827 122.963 36.36C122.792 35.8373 122.707 35.2987 122.707 34.744C122.707 34.2107 122.787 33.688 122.947 33.176C123.117 32.6533 123.373 32.1787 123.715 31.752C124.067 31.3253 124.509 30.9893 125.043 30.744C125.587 30.488 126.227 30.36 126.963 30.36C127.741 30.36 128.429 30.5307 129.027 30.872C129.635 31.2133 130.109 31.72 130.451 32.392C130.792 33.0533 130.963 33.8587 130.963 34.808V35.4H125.155C125.187 35.912 125.363 36.3547 125.683 36.728C126.013 37.1013 126.467 37.288 127.043 37.288C127.373 37.288 127.64 37.24 127.843 37.144C128.056 37.0373 128.221 36.92 128.339 36.792C128.456 36.6533 128.536 36.5307 128.579 36.424C128.621 36.3173 128.643 36.264 128.643 36.264H130.883C130.883 36.264 130.856 36.3653 130.803 36.568C130.76 36.76 130.664 37 130.515 37.288C130.365 37.576 130.147 37.864 129.859 38.152C129.581 38.44 129.213 38.68 128.755 38.872C128.296 39.064 127.725 39.16 127.043 39.16ZM125.155 33.928H128.627C128.595 33.3413 128.419 32.904 128.099 32.616C127.779 32.328 127.384 32.184 126.915 32.184C126.445 32.184 126.045 32.3387 125.715 32.648C125.384 32.9467 125.197 33.3733 125.155 33.928ZM134.351 39L131.727 30.52H134.159L135.679 36.024L137.327 30.52H139.535L141.183 36.024L142.703 30.52H145.135L142.511 39H139.935L138.431 34.04L136.927 39H134.351ZM149.637 39.16C148.933 39.16 148.351 39.064 147.893 38.872C147.434 38.68 147.066 38.4453 146.789 38.168C146.522 37.88 146.319 37.5973 146.181 37.32C146.053 37.032 145.967 36.792 145.925 36.6C145.893 36.408 145.877 36.312 145.877 36.312H148.133C148.133 36.312 148.149 36.3653 148.181 36.472C148.213 36.5787 148.282 36.7013 148.389 36.84C148.506 36.9787 148.671 37.1013 148.885 37.208C149.098 37.3147 149.386 37.368 149.749 37.368C150.197 37.368 150.501 37.2773 150.661 37.096C150.831 36.9147 150.917 36.7333 150.917 36.552C150.917 36.168 150.602 35.912 149.973 35.784L148.821 35.56C148.33 35.464 147.866 35.3253 147.429 35.144C147.002 34.952 146.655 34.6907 146.389 34.36C146.133 34.0187 146.005 33.5813 146.005 33.048C146.005 32.536 146.138 32.0773 146.405 31.672C146.671 31.2667 147.05 30.9467 147.541 30.712C148.042 30.4773 148.639 30.36 149.333 30.36C149.983 30.36 150.522 30.4507 150.949 30.632C151.386 30.8027 151.733 31.0213 151.989 31.288C152.245 31.544 152.437 31.8053 152.565 32.072C152.693 32.328 152.773 32.5467 152.805 32.728C152.847 32.8987 152.869 32.984 152.869 32.984H150.693C150.693 32.984 150.661 32.9147 150.597 32.776C150.533 32.6267 150.399 32.4827 150.197 32.344C150.005 32.1947 149.706 32.12 149.301 32.12C148.885 32.12 148.597 32.2053 148.437 32.376C148.277 32.536 148.197 32.7067 148.197 32.888C148.197 33.1013 148.287 33.2613 148.469 33.368C148.661 33.4747 148.906 33.56 149.205 33.624L150.309 33.848C151.119 34.008 151.786 34.2907 152.309 34.696C152.831 35.0907 153.093 35.6667 153.093 36.424C153.093 36.936 152.959 37.4 152.693 37.816C152.426 38.232 152.037 38.5627 151.525 38.808C151.013 39.0427 150.383 39.16 149.637 39.16Z" fill="black"/>
<path d="M100.088 62V50.16H108.248V52.304H102.552V54.96H107.512V57.024H102.552V59.856H108.328V62H100.088ZM112.738 62L109.634 53.52H112.066L114.05 59.264L115.954 53.52H118.402L115.282 62H112.738ZM123.496 62.16C122.749 62.16 122.104 62.0373 121.56 61.792C121.016 61.536 120.568 61.2 120.216 60.784C119.864 60.3573 119.597 59.8827 119.416 59.36C119.245 58.8373 119.16 58.2987 119.16 57.744C119.16 57.2107 119.24 56.688 119.4 56.176C119.57 55.6533 119.826 55.1787 120.168 54.752C120.52 54.3253 120.962 53.9893 121.496 53.744C122.04 53.488 122.68 53.36 123.416 53.36C124.194 53.36 124.882 53.5307 125.48 53.872C126.088 54.2133 126.562 54.72 126.904 55.392C127.245 56.0533 127.416 56.8587 127.416 57.808V58.4H121.608C121.64 58.912 121.816 59.3547 122.136 59.728C122.466 60.1013 122.92 60.288 123.496 60.288C123.826 60.288 124.093 60.24 124.296 60.144C124.509 60.0373 124.674 59.92 124.792 59.792C124.909 59.6533 124.989 59.5307 125.032 59.424C125.074 59.3173 125.096 59.264 125.096 59.264H127.336C127.336 59.264 127.309 59.3653 127.256 59.568C127.213 59.76 127.117 60 126.968 60.288C126.818 60.576 126.6 60.864 126.312 61.152C126.034 61.44 125.666 61.68 125.208 61.872C124.749 62.064 124.178 62.16 123.496 62.16ZM121.608 56.928H125.08C125.048 56.3413 124.872 55.904 124.552 55.616C124.232 55.328 123.837 55.184 123.368 55.184C122.898 55.184 122.498 55.3387 122.168 55.648C121.837 55.9467 121.65 56.3733 121.608 56.928ZM129.069 62V53.52H131.501V54.736H131.581C131.677 54.5653 131.815 54.3733 131.997 54.16C132.189 53.9467 132.439 53.76 132.749 53.6C133.069 53.44 133.474 53.36 133.965 53.36C134.626 53.36 135.165 53.5147 135.581 53.824C135.997 54.1227 136.301 54.512 136.493 54.992C136.685 55.4613 136.781 55.9573 136.781 56.48V62H134.349V56.896C134.349 56.4907 134.237 56.1333 134.013 55.824C133.799 55.5147 133.453 55.36 132.973 55.36C132.61 55.36 132.322 55.4453 132.109 55.616C131.895 55.7867 131.741 56.0053 131.645 56.272C131.549 56.5387 131.501 56.8213 131.501 57.12V62H129.069ZM142.458 62.16C141.797 62.16 141.269 62.064 140.874 61.872C140.479 61.6693 140.181 61.4187 139.978 61.12C139.775 60.8107 139.642 60.4853 139.578 60.144C139.514 59.8027 139.482 59.488 139.482 59.2V55.456H138.042V53.52H139.482V51.424H141.914V53.52H143.722V55.456H141.914V59.136C141.914 59.488 142.005 59.76 142.186 59.952C142.378 60.144 142.693 60.24 143.13 60.24C143.322 60.24 143.498 60.224 143.658 60.192C143.818 60.16 143.898 60.144 143.898 60.144V62.016C143.898 62.016 143.754 62.0373 143.466 62.08C143.178 62.1333 142.842 62.16 142.458 62.16ZM149.09 62.16C148.386 62.16 147.804 62.064 147.346 61.872C146.887 61.68 146.519 61.4453 146.242 61.168C145.975 60.88 145.772 60.5973 145.634 60.32C145.506 60.032 145.42 59.792 145.378 59.6C145.346 59.408 145.33 59.312 145.33 59.312H147.586C147.586 59.312 147.602 59.3653 147.634 59.472C147.666 59.5787 147.735 59.7013 147.842 59.84C147.959 59.9787 148.124 60.1013 148.338 60.208C148.551 60.3147 148.839 60.368 149.202 60.368C149.65 60.368 149.954 60.2773 150.114 60.096C150.284 59.9147 150.37 59.7333 150.37 59.552C150.37 59.168 150.055 58.912 149.426 58.784L148.274 58.56C147.783 58.464 147.319 58.3253 146.882 58.144C146.455 57.952 146.108 57.6907 145.842 57.36C145.586 57.0187 145.458 56.5813 145.458 56.048C145.458 55.536 145.591 55.0773 145.858 54.672C146.124 54.2667 146.503 53.9467 146.994 53.712C147.495 53.4773 148.092 53.36 148.786 53.36C149.436 53.36 149.975 53.4507 150.402 53.632C150.839 53.8027 151.186 54.0213 151.442 54.288C151.698 54.544 151.89 54.8053 152.018 55.072C152.146 55.328 152.226 55.5467 152.258 55.728C152.3 55.8987 152.322 55.984 152.322 55.984H150.146C150.146 55.984 150.114 55.9147 150.05 55.776C149.986 55.6267 149.852 55.4827 149.65 55.344C149.458 55.1947 149.159 55.12 148.754 55.12C148.338 55.12 148.05 55.2053 147.89 55.376C147.73 55.536 147.65 55.7067 147.65 55.888C147.65 56.1013 147.74 56.2613 147.922 56.368C148.114 56.4747 148.359 56.56 148.658 56.624L149.762 56.848C150.572 57.008 151.239 57.2907 151.762 57.696C152.284 58.0907 152.546 58.6667 152.546 59.424C152.546 59.936 152.412 60.4 152.146 60.816C151.879 61.232 151.49 61.5627 150.978 61.808C150.466 62.0427 149.836 62.16 149.09 62.16Z" fill="black"/>
<path d="M185.904 49.16C185.04 49.16 184.24 48.9947 183.504 48.664C182.779 48.3333 182.192 47.8213 181.744 47.128C181.307 46.4347 181.088 45.5333 181.088 44.424V37.16H183.552V44.424C183.552 45.1067 183.744 45.6827 184.128 46.152C184.512 46.6107 185.104 46.84 185.904 46.84C186.704 46.84 187.291 46.6107 187.664 46.152C188.048 45.6827 188.24 45.1067 188.24 44.424V37.16H190.72V44.424C190.72 45.5333 190.496 46.4347 190.048 47.128C189.611 47.8213 189.024 48.3333 188.288 48.664C187.552 48.9947 186.757 49.16 185.904 49.16ZM192.901 52.12V40.52H195.333V41.608H195.445C195.498 41.5333 195.615 41.3947 195.797 41.192C195.989 40.9893 196.261 40.8027 196.613 40.632C196.965 40.4507 197.413 40.36 197.957 40.36C198.586 40.36 199.13 40.488 199.589 40.744C200.058 40.9893 200.447 41.3253 200.757 41.752C201.066 42.168 201.295 42.6373 201.445 43.16C201.605 43.6827 201.685 44.216 201.685 44.76C201.685 45.304 201.605 45.8373 201.445 46.36C201.295 46.8827 201.066 47.3573 200.757 47.784C200.447 48.2 200.058 48.536 199.589 48.792C199.13 49.0373 198.586 49.16 197.957 49.16C197.413 49.16 196.965 49.0747 196.613 48.904C196.261 48.7227 195.989 48.5307 195.797 48.328C195.615 48.1253 195.498 47.9867 195.445 47.912H195.333V52.12H192.901ZM195.285 44.76C195.285 45.1547 195.354 45.5387 195.493 45.912C195.642 46.2853 195.861 46.5947 196.149 46.84C196.447 47.0747 196.815 47.192 197.253 47.192C197.69 47.192 198.053 47.0747 198.341 46.84C198.639 46.5947 198.858 46.2853 198.997 45.912C199.146 45.5387 199.221 45.1547 199.221 44.76C199.221 44.3653 199.146 43.9813 198.997 43.608C198.858 43.2347 198.639 42.9307 198.341 42.696C198.053 42.4507 197.69 42.328 197.253 42.328C196.815 42.328 196.447 42.4507 196.149 42.696C195.861 42.9307 195.642 43.2347 195.493 43.608C195.354 43.9813 195.285 44.3653 195.285 44.76ZM206.966 49.16C206.337 49.16 205.787 49.0373 205.318 48.792C204.859 48.536 204.475 48.2 204.166 47.784C203.857 47.3573 203.622 46.8827 203.462 46.36C203.313 45.8373 203.238 45.304 203.238 44.76C203.238 44.216 203.313 43.6827 203.462 43.16C203.622 42.6373 203.857 42.168 204.166 41.752C204.475 41.3253 204.859 40.9893 205.318 40.744C205.787 40.488 206.337 40.36 206.966 40.36C207.51 40.36 207.958 40.4507 208.31 40.632C208.662 40.8027 208.929 40.9893 209.11 41.192C209.302 41.3947 209.419 41.5333 209.462 41.608H209.59V36.84H212.022V49H209.59V47.912H209.462C209.419 47.9867 209.302 48.1253 209.11 48.328C208.929 48.5307 208.662 48.7227 208.31 48.904C207.958 49.0747 207.51 49.16 206.966 49.16ZM207.67 47.192C208.107 47.192 208.47 47.0747 208.758 46.84C209.057 46.5947 209.275 46.2853 209.414 45.912C209.563 45.5387 209.638 45.1547 209.638 44.76C209.638 44.3653 209.563 43.9813 209.414 43.608C209.275 43.2347 209.057 42.9307 208.758 42.696C208.47 42.4507 208.107 42.328 207.67 42.328C207.233 42.328 206.865 42.4507 206.566 42.696C206.278 42.9307 206.059 43.2347 205.91 43.608C205.771 43.9813 205.702 44.3653 205.702 44.76C205.702 45.1547 205.771 45.5387 205.91 45.912C206.059 46.2853 206.278 46.5947 206.566 46.84C206.865 47.0747 207.233 47.192 207.67 47.192ZM217.56 40.36C218.104 40.36 218.552 40.4507 218.904 40.632C219.256 40.8027 219.522 40.9893 219.704 41.192C219.896 41.3947 220.013 41.5333 220.056 41.608H220.184V40.52H222.616V49H220.184V47.912H220.056C220.013 47.9867 219.896 48.1253 219.704 48.328C219.522 48.5307 219.256 48.7227 218.904 48.904C218.552 49.0747 218.104 49.16 217.56 49.16C216.93 49.16 216.381 49.0373 215.912 48.792C215.453 48.536 215.069 48.2 214.76 47.784C214.45 47.3573 214.216 46.8827 214.056 46.36C213.906 45.8373 213.832 45.304 213.832 44.76C213.832 44.216 213.906 43.6827 214.056 43.16C214.216 42.6373 214.45 42.168 214.76 41.752C215.069 41.3253 215.453 40.9893 215.912 40.744C216.381 40.488 216.93 40.36 217.56 40.36ZM218.264 42.328C217.826 42.328 217.458 42.4507 217.16 42.696C216.872 42.9307 216.653 43.2347 216.504 43.608C216.365 43.9813 216.296 44.3653 216.296 44.76C216.296 45.1547 216.365 45.5387 216.504 45.912C216.653 46.2853 216.872 46.5947 217.16 46.84C217.458 47.0747 217.826 47.192 218.264 47.192C218.701 47.192 219.064 47.0747 219.352 46.84C219.65 46.5947 219.869 46.2853 220.008 45.912C220.157 45.5387 220.232 45.1547 220.232 44.76C220.232 44.3653 220.157 43.9813 220.008 43.608C219.869 43.2347 219.65 42.9307 219.352 42.696C219.064 42.4507 218.701 42.328 218.264 42.328ZM228.302 49.16C227.641 49.16 227.113 49.064 226.718 48.872C226.323 48.6693 226.025 48.4187 225.822 48.12C225.619 47.8107 225.486 47.4853 225.422 47.144C225.358 46.8027 225.326 46.488 225.326 46.2V42.456H223.886V40.52H225.326V38.424H227.758V40.52H229.566V42.456H227.758V46.136C227.758 46.488 227.849 46.76 228.03 46.952C228.222 47.144 228.537 47.24 228.974 47.24C229.166 47.24 229.342 47.224 229.502 47.192C229.662 47.16 229.742 47.144 229.742 47.144V49.016C229.742 49.016 229.598 49.0373 229.31 49.08C229.022 49.1333 228.686 49.16 228.302 49.16ZM235.465 49.16C234.718 49.16 234.073 49.0373 233.529 48.792C232.985 48.536 232.537 48.2 232.185 47.784C231.833 47.3573 231.566 46.8827 231.385 46.36C231.214 45.8373 231.129 45.2987 231.129 44.744C231.129 44.2107 231.209 43.688 231.368 43.176C231.539 42.6533 231.795 42.1787 232.137 41.752C232.489 41.3253 232.931 40.9893 233.465 40.744C234.009 40.488 234.649 40.36 235.385 40.36C236.163 40.36 236.851 40.5307 237.449 40.872C238.057 41.2133 238.531 41.72 238.873 42.392C239.214 43.0533 239.385 43.8587 239.385 44.808V45.4H233.577C233.609 45.912 233.785 46.3547 234.105 46.728C234.435 47.1013 234.889 47.288 235.465 47.288C235.795 47.288 236.062 47.24 236.265 47.144C236.478 47.0373 236.643 46.92 236.761 46.792C236.878 46.6533 236.958 46.5307 237.001 46.424C237.043 46.3173 237.065 46.264 237.065 46.264H239.305C239.305 46.264 239.278 46.3653 239.225 46.568C239.182 46.76 239.086 47 238.937 47.288C238.787 47.576 238.569 47.864 238.281 48.152C238.003 48.44 237.635 48.68 237.177 48.872C236.718 49.064 236.147 49.16 235.465 49.16ZM233.577 43.928H237.049C237.017 43.3413 236.841 42.904 236.521 42.616C236.201 42.328 235.806 42.184 235.337 42.184C234.867 42.184 234.467 42.3387 234.137 42.648C233.806 42.9467 233.619 43.3733 233.577 43.928Z" fill="black"/>
<path d="M81.48 83L85.512 71.16H88.792L92.824 83H90.232L89.48 80.68H84.84L84.072 83H81.48ZM85.528 78.536H88.792L87.16 73.592L85.528 78.536ZM98.3101 83.16C97.5635 83.16 96.9128 83.0373 96.3581 82.792C95.8035 82.536 95.3448 82.2 94.9821 81.784C94.6195 81.368 94.3475 80.8987 94.1661 80.376C93.9848 79.8427 93.8941 79.304 93.8941 78.76C93.8941 78.216 93.9848 77.6827 94.1661 77.16C94.3475 76.6373 94.6195 76.168 94.9821 75.752C95.3448 75.3253 95.8035 74.9893 96.3581 74.744C96.9128 74.488 97.5635 74.36 98.3101 74.36C99.0675 74.36 99.6915 74.472 100.182 74.696C100.673 74.9093 101.062 75.1813 101.35 75.512C101.649 75.832 101.867 76.1573 102.006 76.488C102.145 76.808 102.23 77.08 102.262 77.304C102.305 77.5173 102.326 77.624 102.326 77.624H100.054C100.054 77.624 100.033 77.56 99.9901 77.432C99.9581 77.2933 99.8835 77.1387 99.7661 76.968C99.6595 76.7867 99.4941 76.632 99.2701 76.504C99.0461 76.3653 98.7475 76.296 98.3741 76.296C97.9155 76.296 97.5315 76.4133 97.2221 76.648C96.9235 76.872 96.6995 77.1707 96.5501 77.544C96.4008 77.9173 96.3261 78.3227 96.3261 78.76C96.3261 79.1973 96.4008 79.6027 96.5501 79.976C96.6995 80.3493 96.9235 80.6533 97.2221 80.888C97.5315 81.112 97.9155 81.224 98.3741 81.224C98.7475 81.224 99.0461 81.16 99.2701 81.032C99.4941 80.8933 99.6595 80.7387 99.7661 80.568C99.8835 80.3867 99.9581 80.232 99.9901 80.104C100.033 79.9653 100.054 79.896 100.054 79.896H102.326C102.326 79.896 102.305 80.008 102.262 80.232C102.23 80.4453 102.145 80.7173 102.006 81.048C101.867 81.368 101.649 81.6933 101.35 82.024C101.062 82.344 100.673 82.616 100.182 82.84C99.6915 83.0533 99.0675 83.16 98.3101 83.16ZM108.021 83.16C107.359 83.16 106.831 83.064 106.437 82.872C106.042 82.6693 105.743 82.4187 105.541 82.12C105.338 81.8107 105.205 81.4853 105.141 81.144C105.077 80.8027 105.045 80.488 105.045 80.2V76.456H103.605V74.52H105.045V72.424H107.477V74.52H109.285V76.456H107.477V80.136C107.477 80.488 107.567 80.76 107.749 80.952C107.941 81.144 108.255 81.24 108.693 81.24C108.885 81.24 109.061 81.224 109.221 81.192C109.381 81.16 109.461 81.144 109.461 81.144V83.016C109.461 83.016 109.317 83.0373 109.029 83.08C108.741 83.1333 108.405 83.16 108.021 83.16ZM112.524 73.368C112.098 73.368 111.751 73.2347 111.484 72.968C111.218 72.6907 111.084 72.3653 111.084 71.992C111.084 71.5973 111.218 71.2667 111.484 71C111.751 70.7227 112.098 70.584 112.524 70.584C112.93 70.584 113.271 70.7227 113.548 71C113.826 71.2667 113.964 71.5973 113.964 71.992C113.964 72.3653 113.826 72.6907 113.548 72.968C113.271 73.2347 112.93 73.368 112.524 73.368ZM111.308 83V74.52H113.74V83H111.308ZM118.363 83L115.259 74.52H117.691L119.675 80.264L121.579 74.52H124.027L120.907 83H118.363ZM126.759 73.368C126.332 73.368 125.985 73.2347 125.719 72.968C125.452 72.6907 125.319 72.3653 125.319 71.992C125.319 71.5973 125.452 71.2667 125.719 71C125.985 70.7227 126.332 70.584 126.759 70.584C127.164 70.584 127.505 70.7227 127.783 71C128.06 71.2667 128.199 71.5973 128.199 71.992C128.199 72.3653 128.06 72.6907 127.783 72.968C127.505 73.2347 127.164 73.368 126.759 73.368ZM125.543 83V74.52H127.975V83H125.543ZM134.005 83.16C133.344 83.16 132.816 83.064 132.421 82.872C132.026 82.6693 131.728 82.4187 131.525 82.12C131.322 81.8107 131.189 81.4853 131.125 81.144C131.061 80.8027 131.029 80.488 131.029 80.2V76.456H129.589V74.52H131.029V72.424H133.461V74.52H135.269V76.456H133.461V80.136C133.461 80.488 133.552 80.76 133.733 80.952C133.925 81.144 134.24 81.24 134.677 81.24C134.869 81.24 135.045 81.224 135.205 81.192C135.365 81.16 135.445 81.144 135.445 81.144V83.016C135.445 83.016 135.301 83.0373 135.013 83.08C134.725 83.1333 134.389 83.16 134.005 83.16ZM137.694 86.12C137.406 86.12 137.177 86.1093 137.006 86.088C136.835 86.0667 136.75 86.056 136.75 86.056V84.104C136.75 84.104 136.819 84.1093 136.958 84.12C137.107 84.1307 137.289 84.136 137.502 84.136C138.014 84.136 138.435 84.0613 138.766 83.912C139.097 83.7733 139.385 83.496 139.63 83.08L136.494 74.52H138.926L140.894 80.264L142.814 74.52H145.262L142.222 82.664C141.945 83.4427 141.609 84.088 141.214 84.6C140.83 85.112 140.355 85.4907 139.79 85.736C139.225 85.992 138.526 86.12 137.694 86.12ZM149.762 83.16C149.058 83.16 148.476 83.064 148.018 82.872C147.559 82.68 147.191 82.4453 146.914 82.168C146.647 81.88 146.444 81.5973 146.306 81.32C146.178 81.032 146.092 80.792 146.05 80.6C146.018 80.408 146.002 80.312 146.002 80.312H148.258C148.258 80.312 148.274 80.3653 148.306 80.472C148.338 80.5787 148.407 80.7013 148.514 80.84C148.631 80.9787 148.796 81.1013 149.01 81.208C149.223 81.3147 149.511 81.368 149.874 81.368C150.322 81.368 150.626 81.2773 150.786 81.096C150.956 80.9147 151.042 80.7333 151.042 80.552C151.042 80.168 150.727 79.912 150.098 79.784L148.946 79.56C148.455 79.464 147.991 79.3253 147.554 79.144C147.127 78.952 146.78 78.6907 146.514 78.36C146.258 78.0187 146.13 77.5813 146.13 77.048C146.13 76.536 146.263 76.0773 146.53 75.672C146.796 75.2667 147.175 74.9467 147.666 74.712C148.167 74.4773 148.764 74.36 149.458 74.36C150.108 74.36 150.647 74.4507 151.074 74.632C151.511 74.8027 151.858 75.0213 152.114 75.288C152.37 75.544 152.562 75.8053 152.69 76.072C152.818 76.328 152.898 76.5467 152.93 76.728C152.972 76.8987 152.994 76.984 152.994 76.984H150.818C150.818 76.984 150.786 76.9147 150.722 76.776C150.658 76.6267 150.524 76.4827 150.322 76.344C150.13 76.1947 149.831 76.12 149.426 76.12C149.01 76.12 148.722 76.2053 148.562 76.376C148.402 76.536 148.322 76.7067 148.322 76.888C148.322 77.1013 148.412 77.2613 148.594 77.368C148.786 77.4747 149.031 77.56 149.33 77.624L150.434 77.848C151.244 78.008 151.911 78.2907 152.434 78.696C152.956 79.0907 153.218 79.6667 153.218 80.424C153.218 80.936 153.084 81.4 152.818 81.816C152.551 82.232 152.162 82.5627 151.65 82.808C151.138 83.0427 150.508 83.16 149.762 83.16Z" fill="black"/>
<path d="M158 2V2C162.971 2 167 6.02944 167 11V37.5C167 41.6421 170.358 45 174.5 45V45" stroke="#AE8B39" stroke-width="2"/>
<path d="M158 88V88C162.971 88 167 83.9706 167 79V52.5C167 48.3579 170.358 45 174.5 45V45" stroke="#AE8B39" stroke-width="2"/>
</svg>
